<?xml version="1.0" encoding="UTF-8"?><svg id="Layer_1" xmlns="http://www.w3.org/2000/svg" viewBox="0 0 387.05 67.95"><defs><style>.cls-1{fill:#fff;}</style></defs><g><path class="cls-1" d="M117.85,23.06c-.32,2.56-.63,5.13-.96,7.76h-2.61c.62-4.5,1.24-8.94,1.86-13.43h2.81l3.41,10.42c1.23-3.64,2.37-7.03,3.52-10.43h2.79c.62,4.47,1.24,8.91,1.86,13.44h-2.93c-.34-2.67-.69-5.36-1.04-8.05l-.25-.05c-.89,2.7-1.79,5.4-2.69,8.12h-2.84c-.82-2.5-1.65-5.05-2.51-7.77-.13-.36-.23-.56-.43-.93v.92Z"/><path class="cls-1" d="M169.32,20.73c1.77,.11,3.43,.23,5.18,.35v1.65l-1.04,.12c.76,4.39-1.85,5.21-5.43,5.02l-.17,.91c.54,.1,.99,.2,1.45,.25,.83,.09,1.67,.12,2.5,.24,1.44,.2,2.3,.9,2.54,2,.31,1.41-.16,2.65-1.38,3.42-1.63,1.04-3.45,1.16-5.31,.94-.43-.05-.86-.17-1.27-.32-1.92-.73-2.33-2.67-.87-4.09,.2-.19,.41-.36,.62-.54-.98-1.34-.94-1.99,.27-3.42-.96-.71-1.59-1.62-1.62-2.86-.04-1.64,1.04-3.02,2.76-3.45,.54-.13,1.1-.15,1.76-.22Zm.66,1.93c-.27-.03-.55-.09-.82-.1-.8,0-1.35,.35-1.61,1.13-.26,.81-.03,1.71,.58,2.14,.58,.42,1.53,.43,2.13,.03,1.01-.67,.96-2.16-.29-3.21Zm-2.7,10.04c.5,1.13,1.7,1.51,3.22,1.02,1.03-.33,1.28-.75,1.04-2.07l-3.65-.51c-.22,.49-.42,.94-.62,1.56Z"/><path class="cls-1" d="M198.77,28.79c-.12-1.92,.28-3.75-.28-5.48-1.27-.6-2.02-.01-2.78,.89v6.64h-2.59c-.34-2.56,.32-5.15-.39-7.57-1.31-.51-1.99,.11-2.67,.97v6.58h-2.64v-9.76h2.46l.18,.87c1.86-1.31,3.72-1.95,5.33,.04,.97-.41,1.86-.97,2.82-1.16,1.67-.35,3.09,.64,3.16,2.26,.12,2.57,.03,5.15,.03,7.79h-2.65v-2.05Z"/><path class="cls-1" d="M241.85,30.89c-.79,0-1.46,0-2.24,0v-13.38c2.01,0,4.01-.15,5.97,.04,2.13,.21,3.25,1.46,3.41,3.37,.14,1.66-.65,3.3-2.68,3.86-.06,.02-.11,.09-.2,.17,.64,.93,1.3,1.86,1.94,2.8,.64,.95,1.26,1.92,1.98,3.03h-3c-1.29-1.74-2.62-3.55-3.98-5.34-.08-.1-.37-.05-.67-.07,0,1.57,.01,3.07,0,4.58,0,.35,.22,.85-.53,.93Zm1.19-11.34l-.59,.08v3.65c.61,0,1.16,0,1.71,0,.2,0,.4-.04,.59-.09,.95-.25,1.43-.86,1.41-1.8-.01-.94-.5-1.52-1.49-1.71-.47-.09-.95-.09-1.63-.13Z"/><path class="cls-1" d="M312.27,30.9c-.78,0-1.45,0-2.2,0v-14.56h2.66v5.45c.91-.37,1.68-.81,2.5-.98,1.92-.41,3.4,.63,3.5,2.58,.13,2.45,.03,4.91,.03,7.44h-2.73c0-.44,0-.89,0-1.35,0-1.59,0-3.18,0-4.77,0-.59,.05-1.26-.63-1.55-.68-.29-1.33-.08-1.9,.35-.25,.19-.46,.43-.75,.7,0,1.84,.02,3.71-.02,5.57,0,.37-.24,.74-.47,1.11Z"/><path class="cls-1" d="M221.45,20.76c1.64,.43,2.37,1.1,2.43,2.62,.1,2.46,.03,4.92,.03,7.45h-2.73c0-.77,0-1.55,0-2.33,0-1.28,.01-2.55,0-3.83,0-.59,.04-1.36-.67-1.5-.56-.11-1.22,.1-1.8,.3-.31,.1-.53,.46-.83,.75v6.6h-2.65v-9.79h2.48l.22,.88c1.07-.74,2.14-1.3,3.52-1.16Z"/><path class="cls-1" d="M52.25,31.06c-2.29,.13-3.43-.66-3.54-2.67-.12-2.42-.03-4.84-.03-7.35h2.72c0,1.75,0,3.45,0,5.15,0,.32,0,.64,0,.96,0,.6-.04,1.26,.64,1.55,.68,.29,1.33,.1,1.9-.35,.25-.2,.48-.42,.76-.67v-6.63h2.74v9.78h-2.36l-.31-.87c-.8,.36-1.61,.72-2.52,1.11Z"/><path class="cls-1" d="M11.97,23.54c-1.23-.8-1.98-.59-3.14,.88v6.42h-2.62v-9.79h2.51l.13,.9c.1-.03,.2-.05,.29-.09,.82-.37,1.61-.92,2.47-1.08,1.78-.32,3.03,.68,3.25,2.49,.12,1.02,.08,2.07,.09,3.1,0,1.39-.01,2.79-.02,4.18,0,.07-.06,.14-.13,.28h-2.61c0-.42,0-.84,0-1.26-.05-1.98-.1-3.97-.2-6.04Z"/><path class="cls-1" d="M100.1,25.91c-.2,3.79-2.92,5.89-6.41,5.02-.46-.11-.91-.31-1.31-.55-1.94-1.18-2.74-4.02-1.86-6.49,.79-2.22,2.89-3.45,5.3-3.1,2.55,.37,4.09,2.05,4.28,4.66,0,.12,0,.24,0,.47Zm-3.73-2.65c-1.67-.99-3.06-.37-3.21,1.54-.08,1.01,.03,2.06,.27,3.05,.2,.85,1.01,1.23,1.86,1.18,.86-.05,1.44-.49,1.67-1.29,.42-1.49,.5-2.98-.59-4.47Z"/><path class="cls-1" d="M251.81,22.66c.96-1.25,2.2-1.81,3.65-1.92,3.14-.23,5.29,2.59,4.37,5.84h-5.9c-.06,2.39,1.59,3.02,4.93,1.9l.87,1.68c-2.13,1.1-4.23,1.37-6.36,.35-2.28-1.09-3.21-4.22-2.11-6.85,.14-.33,.33-.63,.56-1.01Zm2.97,2.06h2.48c-.03-1.4-.43-1.91-1.46-1.97-1.17-.07-1.77,.52-1.92,1.86,.07,.03,.13,.08,.2,.09,.16,.02,.32,.02,.7,.02Z"/><path class="cls-1" d="M212.52,26.55c-2.01,.03-3.92,.03-5.83,.03,.04,2.43,1.56,3,4.97,1.92l.79,1.54c-1.97,1.56-5.56,1.45-7.32-.2-1.72-1.61-2.03-4.87-.67-6.96,1.3-1.99,4.17-2.74,6.26-1.64,1.67,.88,2.54,3.29,1.8,5.32Zm-3.82-3.79c-1.49,.09-1.9,.47-2.01,1.89h3.41c.01-.95-.25-1.63-1.4-1.89Z"/><path class="cls-1" d="M278.65,22.05c1.03,1.35,1.17,2.82,1.06,4.49h-6.08c-.1,2.42,1.62,3.08,4.9,1.93l.9,1.69c-2.2,1.11-4.35,1.4-6.49,.29-1.93-1-2.5-2.82-2.42-4.83,.09-2.05,.96-3.71,2.98-4.49,1.83-.71,3.59-.59,5.15,.92Zm-4.89,1.62c-.09,.32-.18,.63-.29,.99h3.59c-.08-.8-.21-1.53-1-1.8-.84-.28-1.65-.17-2.31,.81Z"/><path class="cls-1" d="M180.36,26.58h-1.53c.21,2.47,1.44,2.92,5.03,1.94l.84,1.64c-2.18,1.15-4.36,1.4-6.54,.27-2.2-1.15-3.02-4.44-1.85-6.96,1.03-2.21,3.7-3.29,6.07-2.45,.86,.3,1.54,.84,1.97,1.65,.64,1.2,.77,2.48,.57,3.93-1.52,0-2.98,0-4.56,0Zm1.68-1.87c.37-.89-.02-1.71-.91-1.92-1.3-.3-2.17,.42-2.27,1.93,.99,0,1.98,0,3.18-.01Z"/><path class="cls-1" d="M72.37,31.11c-3.82-.69-5.57-3.59-4.4-7.12,.89-2.69,4.04-4.04,6.62-2.86,1,.46,1.7,1.23,1.96,2.28,.24,.98,.28,2.01,.42,3.16h-6.27c.14,2.44,1.61,3,5.01,1.91l.84,1.59c-1.25,.91-2.64,1.05-4.17,1.03Zm1.56-7.64c-.47-.8-1.22-.84-1.99-.65-.89,.23-1.19,.95-1.32,1.82h3.64c-.1-.39-.18-.69-.33-1.17Z"/><path class="cls-1" d="M281.85,22.31c1.01-1.55,4.57-2.04,6.39-1.06,.83,.45,1.29,1.19,1.37,2.11,.08,.91,.1,1.82,.11,2.74,.02,1.55,0,3.09,0,4.72h-2.36l-.23-.73c-.09,.03-.19,.06-.29,.1-.72,.31-1.41,.76-2.16,.9-1.35,.25-2.66-.55-3.09-1.71-.47-1.27-.09-2.76,1.09-3.48,.72-.45,1.59-.69,2.42-.93,.56-.16,1.18-.16,1.76-.23,.25-1.33-.2-1.94-1.49-1.81-.84,.09-1.65,.45-2.58,.72-.25-.35-.56-.8-.92-1.34Zm3.8,4.29c-1.52,.42-1.75,.75-1.42,2.1,1.12,.66,1.76,.54,2.71-.49v-1.74c-.41,.04-.76,.07-1.29,.13Z"/><path class="cls-1" d="M132.35,27.56c.52-1.75,1.89-2.26,3.37-2.58,.69-.15,1.4-.19,2.22-.29l-.3-1.4c-1.46-.78-2.68-.22-3.91,.49l-1.11-1.54c1.61-1.49,4.48-1.96,6.3-1.09,1.14,.55,1.56,1.55,1.63,2.72,.06,.91,.03,1.83,.03,2.74,0,1.38,0,2.77,0,4.22h-2.28l-.39-.76c-1.68,1.17-3.39,1.65-5.03,.02-.65-.65-.78-1.54-.52-2.54Zm4.38,1.46l1.09-.68v-1.91c-.59,.08-1.1,.1-1.59,.21-.92,.21-1.46,.84-1.37,1.54,.08,.66,.54,.9,1.87,.83Z"/><path class="cls-1" d="M159,30.69c-.5,.16-.91,.34-1.34,.41-1.35,.2-2.7-.54-3.14-1.66-.5-1.26-.15-2.77,1.03-3.49,.82-.5,1.82-.73,2.76-1.01,.48-.15,1.02-.14,1.71-.22l-.32-1.44c-1.55-.55-2.07-.47-3.85,.49-.18-.22-.38-.45-.56-.69-.19-.25-.37-.51-.55-.77,1.43-1.64,4.97-2.1,6.7-.88,.86,.6,1.15,1.5,1.19,2.49,.04,.91,.02,1.83,.02,2.74,0,1.38,0,2.76,0,4.2h-2.28l-.39-.75c-.31,.2-.6,.38-.97,.61Zm-1.43-3.75c-.73,.84-.83,1.36-.34,1.85,.6,.61,1.8,.33,2.66-.58v-1.85c-.79,.18-1.47,.34-2.32,.58Z"/><path class="cls-1" d="M143.39,26.16c0-1.75,0-3.38,0-5.1h2.56l.18,.93c.16-.11,.29-.19,.41-.28,.98-.79,2.09-1.14,3.35-.89,1.25,.25,2.1,.99,2.15,2.22,.09,2.57,.03,5.15,.03,7.79h-2.63c0-1.75,0-3.45,0-5.16,0-.12,0-.24,0-.36-.05-.8,.26-1.82-.76-2.19-1.09-.39-1.89,.27-2.61,1.16v6.54h-2.66c0-1.55,0-3.05,0-4.67Z"/><path class="cls-1" d="M84.09,18.66c.5-2.19,3.16-3.41,6.12-2.09l-.49,1.62c-.94,.17-1.92,.1-2.53,.53-.47,.34-.49,1.32-.76,2.18l2.52,.11v1.96h-2.26v7.83h-2.74v-7.68l-1.45-.17v-1.92l1.35-.15c.07-.73,.14-1.43,.24-2.23Z"/><path class="cls-1" d="M44,24.98c.11,1.32-.27,2.57,.38,3.87l1.94-.15,.6,1.84c-1.46,.69-2.89,.87-4.35,.18-.83-.39-1.19-1.16-1.22-2.05-.04-1.39-.05-2.79-.07-4.18,0-.43,0-.87,0-1.36l-1.51-.15v-1.93l1.52-.16v-2.69h2.7v2.77h2.23v2.04h-2.22v1.98Z"/><path class="cls-1" d="M231.91,28.72c.25,.01,.53,.02,.56,.11,.2,.55,.35,1.11,.55,1.82-.78,.17-1.46,.4-2.15,.46-2.28,.2-3.44-.86-3.5-3.16-.02-.79,0-1.59,0-2.38,0-.79,0-1.58,0-2.44l-1.48-.16v-1.93l1.46-.14v-2.72h2.71v2.74h2.25v2.11h-2.07c-.29,2-.19,4.72,.23,5.73,.42,0,.88,0,1.43-.03Z"/><path class="cls-1" d="M63.68,25.45c.11,1.16-.29,2.27,.45,3.39l1.88-.14,.6,1.83c-1.47,.69-2.91,.89-4.36,.18-.92-.45-1.23-1.32-1.23-2.29-.01-1.75,0-3.49,0-5.31l-1.56-.1v-1.94l1.53-.15v-2.72h2.68v2.73l2.27,.1v1.99h-2.26v2.45Z"/><path class="cls-1" d="M27.22,25.21v-2.1l-1.52-.14v-1.93l1.51-.16v-2.7h2.67v2.73l2.3,.1v1.99h-2.3c.13,1.96-.23,3.84,.31,5.84l2.05-.16,.59,1.83c-1.17,.56-2.27,.76-3.44,.5-1.38-.3-2.07-1.06-2.13-2.47-.05-1.07-.02-2.15-.02-3.34Z"/><path class="cls-1" d="M266.41,27.95c-.93-.53-1.82-.97-2.7-1.42-.96-.5-1.7-1.18-1.86-2.32-.22-1.54,.71-2.89,2.3-3.29,1.53-.38,3-.17,4.55,.61l-.92,1.8c-1.22-.39-2.42-1.1-3.47,.06,.02,.78,.53,.94,1.01,1.15,.8,.35,1.61,.69,2.37,1.11,1.06,.59,1.42,1.57,1.28,2.73-.13,1.12-.7,1.94-1.77,2.34-1.91,.72-3.74,.46-5.65-.52,.3-.63,.58-1.21,.8-1.67,1.09,.18,2.08,.41,3.08,.48,.56,.04,1.13-.19,.97-1.07Z"/><path class="cls-1" d="M18.03,21.76c1.82-1.33,4.11-1.37,6.02-.13l-.73,1.44c-1.19-.04-2.19-.12-3.18-.07-.18,0-.33,.51-.57,.91,.6,.31,1.04,.56,1.49,.77,.65,.31,1.32,.55,1.95,.9,1.1,.61,1.51,1.59,1.37,2.81-.14,1.18-.76,1.99-1.88,2.38-1.88,.66-3.67,.39-5.52-.55l.87-1.91c1.42,.67,2.78,1.3,4.34-.1-.55-.37-.9-.66-1.29-.87-.63-.33-1.32-.57-1.94-.92-1.92-1.08-2.27-2.77-.91-4.67Z"/><path class="cls-1" d="M302.68,25.49c-.02,.19-.03,.27-.02,.35,.18,2.88,1.48,3.74,4.19,2.76,.11-.04,.23-.05,.43-.09l.76,1.57c-1.74,1.5-4.99,1.37-6.72-.24-1.82-1.68-2.1-5.05-.59-7.14,1.47-2.04,4.65-2.58,7.26-1.13l-.8,1.74c-1.15-.36-2.3-.87-3.43-.1-.76,.52-.98,1.32-1.07,2.29Z"/><path class="cls-1" d="M2.79,18.32c0,4.23,0,8.35,0,12.52H0v-13.4H2.71c.03,.24,.05,.5,.08,.87Z"/><path class="cls-1" d="M102.3,21.49c.16-.25,.32-.49,.48-.5,.71-.04,1.42-.02,2.17-.02l.23,.94c1.03-.96,2.16-1.54,3.68-.88l-.6,2.29c-1.41-.32-2.47,.01-3.21,1.4v6.11h-2.75c0-3.06,0-6.15,0-9.34Z"/><path class="cls-1" d="M292.49,24.25v-3.23h2.57l.33,.86c1.02-.97,2.14-1.5,3.63-.85l-.56,2.16c-.58,.03-1.14-.03-1.67,.09-.92,.2-1.54,1.04-1.55,1.99-.02,1.82,0,3.64,0,5.54h-2.75v-6.57Z"/><path class="cls-1" d="M37.21,20.98c.19,.26,.33,.51,.33,.76,.02,2.86,.01,5.72,0,8.59,0,.15-.04,.3-.07,.51h-2.55v-9.86c.76,0,1.46,0,2.28,.01Z"/><path class="cls-1" d="M35.05,16.99c1.29-.68,2.32-.47,2.68,.52,.23,.63,.16,1.26-.36,1.76-.51,.49-1.13,.59-1.77,.35-.66-.24-1.04-.76-1-1.47,.02-.37,.24-.73,.44-1.16Z"/><path class="cls-1" d="M117.91,23.06c-.07-.23-.07-.47-.07-.91,.2,.37,.3,.57,.4,.84-.09,.08-.18,.07-.34,.07Z"/></g><g><path class="cls-1" d="M310.57,57.49c-.67-.82-.67-.87-.4-2.09,3.11,.05,3.18,.02,3.75-1.62-.97-2.29-1.89-4.52-2.86-6.73-.36-.81-.46-1.79-1.4-2.27-.12-.06-.09-.41-.14-.71h4.76v.7l-1.22,.53c.35,1.96,1.28,3.69,1.93,5.52h.25c.56-1.84,1.11-3.67,1.62-5.32-.35-.66-1.37-.46-1-1.42h3.2c0,.22,.08,.48-.01,.66-.37,.73-.86,1.4-1.17,2.15-1.14,2.79-2.23,5.61-3.32,8.42-.36,.93-.9,1.68-1.91,2.1-.67,.08-1.32,.08-2.07,.08Z"/><path class="cls-1" d="M146.24,48.25c-.22-.39-.39-.7-.56-.99h-1.12v5.03l1.2,.52v.87h-4.98l-.07-.82,1.23-.59v-10.75l-1.17-.53v-.95c2.29,0,4.51-.05,6.74,.02,1.67,.05,2.85,1.12,3.12,2.63,.3,1.69-.42,3.13-1.93,3.83-.18,.08-.35,.17-.64,.31,1.34,2.15,1.96,4.73,4.42,6.17,0,0,.04,.11,.04,.22,0,.12-.02,.23-.05,.44h-3.75c-.8-1.73-1.63-3.53-2.5-5.41Zm-1.79-4.51v2.25c1.4,.04,2.62,.17,3.35-1.12,.48-.85,.42-2.01-.16-2.7-.84-1-1.96-.81-3.19-.78,0,.78,0,1.45,0,2.35Z"/><path class="cls-1" d="M229.1,51.64c1.13,1.02,2.4,1.05,3.68,.76,1.32-.29,2.08-1.26,2.12-2.57,.08-2.74,.02-5.48,.02-8.27l-1.25-.6-.06-.85h4.23v.86l-1.23,.56c0,.76,0,1.58,0,2.4-.03,1.95,.02,3.91-.12,5.85-.17,2.36-1.24,3.6-3.54,3.98-1.23,.2-2.56,.19-3.79-.03-2.22-.4-3.2-1.65-3.27-3.91-.07-2.27-.05-4.54-.08-6.81,0-.51-.07-1.02-.11-1.51l-1.19-.54v-.87h4.97l.06,.88-1.27,.58c0,.95,0,1.93,0,2.91,0,1.59-.07,3.19,.05,4.78,.06,.79,.47,1.56,.78,2.4Z"/><path class="cls-1" d="M209.65,52.87c-1.49-2.02-1.52-4.14-.64-6.28,.79-1.92,2.45-2.8,4.52-2.51,.39,.05,.77,.16,1.25,.25v-3.54l-1.17-.43-.12-.81,3.71-.54c0,.55,0,.96,0,1.38-.05,3.26-.11,6.52-.14,9.79,0,.75,.1,1.49,.15,2.26l1.38,.43-.09,.72-3.25,.62-.24-1.66c-1.71,1.39-3.45,2.18-5.36,.33Zm3.21-7.51c-1.08,.18-1.65,.89-1.92,1.89-.33,1.22-.3,2.44,.18,3.62,.43,1.06,1.16,1.53,2.09,1.42,.85-.1,1.48-.72,1.6-1.81,.11-1.02,.1-2.06,.03-3.09-.07-1.11-.65-1.86-2-2.03Z"/><path class="cls-1" d="M170.06,52.79c-.38,.11-.72,.28-1.04,.49-1.58,1.1-3.39,.84-4.53-.67-1.5-1.98-1.26-5.65,.49-7.42,.87-.87,1.92-1.26,3.14-1.16,.55,.04,1.09,.17,1.71,.28v-3.52l-1.2-.43-.04-.82,3.57-.51v13.31l1.43,.53v.7l-3.25,.64c-.09-.5-.16-.92-.28-1.42Zm-.03-4.46c-.06-.43-.09-.87-.19-1.29-.24-1-.82-1.56-1.63-1.66-.76-.09-1.58,.38-1.98,1.27-.72,1.58-.63,3.17,.2,4.69,.39,.72,1.04,1.07,1.89,.96,.83-.11,1.28-.66,1.45-1.39,.17-.77,.19-1.57,.27-2.57Z"/><path class="cls-1" d="M183.89,50.94c-1.65,3.15-5,3.96-8.24,1.92v-12.11l-1.23-.39-.11-.76,3.63-.57v6.56c.33-.3,.49-.45,.66-.6,1.75-1.66,4.34-1.15,5.28,1.09,.66,1.57,.6,3.18,.02,4.87Zm-4,1.75c1.6-.34,2.51-2.45,2.06-4.91-.25-1.37-1.08-2.19-2.03-2.14-.94,.05-1.75,1-1.94,2.27-.02,.16-.04,.32-.04,.48,0,.87-.04,1.75,0,2.62,.05,1.28,.38,1.57,1.96,1.69Z"/><path class="cls-1" d="M243.87,45.96c-1.04,.45-1.45,1.21-1.45,2.22,0,1.39,0,2.78,.06,4.16,.32,.52,1.47,.23,1.18,1.32-1.56,0-3.13,0-4.7,0q-.04-.7,1.11-1.28c.23-2.18,.22-4.42-.17-6.72l-1.3-.41v-.87l3.48-.39c.06,.69,.11,1.22,.18,2.02,.49-.47,.82-.79,1.14-1.1,1.03-.98,2.6-1.21,3.87-.6,.9,.43,1.26,1.18,1.28,2.12,.03,1.31,.02,2.63,.03,3.94,0,.67,0,1.34,0,1.98l1.24,.58,.04,.73h-4.77l-.04-.72,1.24-.58c0-1.57,.04-3.16-.01-4.74-.06-1.64-.66-2.05-2.42-1.67Z"/><path class="cls-1" d="M197.71,48.4c0-1.03,0-1.93,0-2.84l-1.25-.42-.05-.8,3.54-.34c0,1.51,0,2.93,0,4.35,0,.68,0,1.35,.02,2.03,.04,1.24,.37,1.73,1.25,1.84,1.1,.14,2.14-.49,2.38-1.52,.12-.5,.17-1.02,.17-1.54,0-1.22-.05-2.44-.09-3.65l-1.22-.38-.04-.77,3.65-.38v8.39l1.28,.48v.74l-3.31,.44-.31-1.77c-.39,.31-.73,.54-1.02,.82-.84,.85-1.87,1-2.98,.81-1.28-.22-1.91-.85-2-2.14-.07-1.07-.03-2.15-.03-3.34Z"/><path class="cls-1" d="M194.92,51.19c-1.28,2.29-3.17,3.16-5.63,2.69-2.36-.46-3.78-2.77-3.38-5.5,.46-3.21,3.06-4.98,6.22-4.24,2.29,.53,3.69,2.88,3.24,5.48-.09,.5-.27,.99-.44,1.57Zm-2.49-4.65c-.57-.84-1.35-1.23-2.35-1-.95,.22-1.44,.95-1.71,1.82-.37,1.21-.34,2.44,.22,3.59,.44,.91,1.13,1.56,2.22,1.51,1.05-.05,1.65-.73,1.99-1.63,.53-1.4,.42-2.8-.37-4.29Z"/><path class="cls-1" d="M161.56,52.51c.45,.35,1.35-.06,1.18,1.1l-3.29,.6-.3-1.56c-.31,.19-.59,.39-.89,.53-.57,.26-1.14,.61-1.74,.71-1.64,.27-2.81-.79-2.73-2.46,.03-.65,.28-1.29,.43-1.96l4.7-1.03c.66-2.02-.12-3.02-2.07-2.72-.8,.13-1.58,.44-2.51,.72l.25-1.91c1.69-.59,3.33-.72,4.98-.28,1.21,.32,1.71,1.11,1.72,2.54,.01,1.43-.06,2.86-.05,4.3,0,.46,.16,.92,.33,1.43Zm-5.3-.59c.82,.62,1.32,.64,2.13,.09,.78-.53,.94-1.16,.6-2.51-.57,.14-1.16,.23-1.7,.43-.82,.31-1.34,.85-1.02,2Z"/><path class="cls-1" d="M267.32,49.78c-.08-1.24,.11-2.33,.67-3.33,1.06-1.91,3.19-2.85,5.29-2.32,1.66,.42,2.52,1.96,2.13,4.12h-5.8c-.33,1.44-.03,2.56,.98,3.36,1.61,1.28,3.16,.38,4.85-.38-.09,.71-.17,1.31-.24,1.87-3.63,2.03-7.21,.54-7.89-3.31Zm2.84-2.49l3.13-.22c.06-1.65-.98-2.38-2.24-1.7-.69,.37-1.17,.93-.89,1.92Z"/><path class="cls-1" d="M305.39,45.6c-.27,.2-.56,.4-.56,.6,.01,1.79,.07,3.57,.13,5.36,0,.15,.11,.29,.17,.42,.91,.81,1.91,.16,2.96,.15-.03,.48-.06,.89-.08,1.36-1.34,.59-2.68,.58-4.01,.31-1.01-.21-1.43-.86-1.44-2.05-.02-1.51,.02-3.02,.03-4.53,0-.47,0-.94,0-1.46l-1.79-.11,.45-1.37,1.31-.12v-2.88l2.38-.94c-.09,1.34-.16,2.49-.24,3.73h3.46l-.38,1.62c-.85-.04-1.56-.08-2.39-.11Z"/><path class="cls-1" d="M260.92,53.6c-.93-2.46-1.79-4.85-2.71-7.21-.22-.56-.67-1.02-.99-1.54-.11-.18-.13-.42-.22-.75h4.78l.03,.71-1.31,.56c.61,1.97,1.21,3.92,1.88,6.11,.73-2.18,1.38-4.12,1.97-5.86-.19-.79-1.38-.53-.97-1.54h3.39c-1.77,3.04-2.69,6.34-4.16,9.61-.51,0-1.08,0-1.69-.08Z"/><path class="cls-1" d="M289.38,50.07c-.53-.29-.99-.53-1.43-.8-.99-.61-1.35-1.52-1.21-2.65,.14-1.08,.72-1.86,1.72-2.25,1.43-.54,2.86-.5,4.39,.11l-.17,2.04c-.42-.27-.76-.38-.89-.6-.5-.83-1.26-.98-2.07-.78-.4,.1-.83,.49-1.02,.86-.25,.5,0,1.03,.51,1.32,.72,.41,1.47,.78,2.21,1.16,.84,.44,1.55,1,1.79,1.97,.33,1.33-.35,2.61-1.76,3.13-1.63,.61-3.27,.53-4.97-.28,.05-.66,.1-1.31,.15-2l.68-.04c.85,1.43,1.76,1.92,2.84,1.55,.81-.27,.98-.6,.86-1.81-.46-.27-1-.58-1.63-.93Z"/><path class="cls-1" d="M278.98,52c0-2.18,.33-4.3-.5-6.33l-1.26-.31v-.87l3.52-.51c.06,.73,.11,1.37,.18,2.29,1.2-1.25,2.04-2.79,4.06-2.06-.04,.64-.09,1.3-.14,2.01-.69,0-1.32-.03-1.95,0-.85,.05-1.51,.51-1.56,1.36-.09,1.57-.03,3.15-.03,4.78l1.81,.57v.75h-5.42v-.58c.49-.39,.87-.7,1.27-1.11Z"/><path class="cls-1" d="M251.55,45.12c-.06-.26-.07-.46-.09-.76l3.57-.38v8.37l1.22,.61,.06,.72h-4.78l-.08-.7,1.2-.57v-6.89c-.4-.12-.73-.22-1.11-.39Z"/><path class="cls-1" d="M296.86,53.69c-.66,0-1.21,0-1.79,0-.41-1.12,.84-.82,1.13-1.41v-6.56c-.39-.62-1.52-.22-1.11-1.37l3.5-.37v8.38l1.23,.6,.05,.72c-1.01,0-1.95,0-3.01,0Z"/><path class="cls-1" d="M298.72,41.22c-.1,.81-.55,1.22-1.22,1.38-.66,.16-1.42-.23-1.66-.86-.25-.66-.13-1.25,.47-1.68,.58-.42,1.53-.38,1.97,.12,.22,.25,.3,.62,.43,1.03Z"/><path class="cls-1" d="M252.22,41.41c.16-1.23,.8-1.76,1.78-1.6,.86,.14,1.34,.9,1.11,1.76-.18,.65-.67,1-1.29,1.05-.79,.06-1.37-.3-1.6-1.2Z"/></g><g><path class="cls-1" d="M360.16,0c.79,0,1.44,0,2.18,0,.05,.85,.1,1.58,.15,2.44l2.47,.18v3.42c1.84,1.34,3.52,2.59,5.23,3.79,.93,.65,1.36,1.5,1.35,2.61,0,1.29,0,2.58,0,4h4.49c1.25,3.06,1.24,6.14,.88,9.21-.94,7.94-3.77,15.3-7.27,22.41-1.57,3.2-3.42,6.26-5.22,9.34-.57,.98-1.29,1.88-2.05,2.72-1.44,1.62-2.42,1.59-3.88-.07-.5-.57-.97-1.17-1.37-1.81-6.17-9.66-10.88-19.93-12.81-31.3-.59-3.48-.6-6.98,.68-10.48h4.47c0-1.23,.02-2.34,0-3.46-.03-1.52,.45-2.63,1.87-3.48,1.56-.93,2.92-2.19,4.56-3.47V2.63l2.53-.14c.05-.79,.09-1.53,.14-2.4,.49-.03,.96-.06,1.58-.08Zm4.88,28.08l-.54,.11v.19c.19,.02,.38,.04,.79,.18,2.78,1.28,5.55,2.56,8.44,3.89,.21-.96,.39-1.77,.6-2.74-3.15-.53-6.16-1.04-9.29-1.62Zm-7.73,16.27l.93,.17v12.22c.68,.86,1.4,1.77,2.24,2.83,.86-1.09,1.56-1.97,2.32-2.94v-12.35h6.63c.56-1.38,1.09-2.65,1.71-4.17h-8.49v-5.74h-4.45v5.81h-8.28l1.75,4.16c1.86,0,3.59,0,5.64,0Zm-3.92-17.56l4.12-.64c.01,2.71,.87,3.97,2.74,3.95,.76,0,1.8-.2,2.2-.71,.67-.86,.93-2.03,1.41-3.21,3.4,.53,7.07,1.1,11.01,1.71,.14-2.39,.26-4.61,.4-6.98-3.26,.14-6.23-.19-9.3,.23,.57,.88,.97,1.48,1.37,2.1-1.18,1.66-2.98,1.7-4.31,2.37-2.53-.8-2.21-2.71-1.88-4.76l-1.77,.33c.98,2.57,.68,3.38-1.56,4.45-1.33-.62-2.93-.83-4.27-2.21,.42-.72,.83-1.41,1.34-2.28h-9.18c.17,2.2,.34,4.41,.51,6.76,2.5-.39,4.68-.73,7.15-1.1Zm7.23-10.32h3.15c0-1.62,.07-3.07-.02-4.51-.1-1.62-1.25-2.43-3.22-2.44-1.97-.01-3.17,.79-3.29,2.38-.11,1.49-.02,2.99-.02,4.57,1.15,0,2.12,0,3.4,0Zm4.66,3.17c1.23-.17,2.45-.44,3.68-.5,1.68-.09,3.36,0,5.04-.04,.28,0,.56-.2,.84-.31l-.08-.46h-1.7c-5.86,0-11.72,0-17.57,0-2.71,0-5.42-.01-8.14,.01-.38,0-.77,.17-1.15,.27l.08,.51c.63,0,1.26-.02,1.9,0,2.17,.06,4.34,.02,6.5,.23,1.9,.19,2.5,1.47,1.74,3.24-.05,.13-.04,.28-.07,.49l1.61,.5c1.03-1.09-.4-1.26-.52-1.85,.25-1.55,1.77-2.6,3.43-2.4,1.52,.18,2.23,1.2,1.96,2.72-.08,.47-.01,.96-.01,1.64l1.97-.73c-.86-1.23-.89-2.31,.5-3.33Zm7.41,16.27c.15-.5,.29-1.01,.44-1.52h-8.52v3.94h7.22c.27-.77,.51-1.48,.86-2.42Zm-19.88,2.51h3.63v-4.08h-8.54c.48,1.43,.91,2.73,1.37,4.08,1.17,0,2.19,0,3.54,0Zm16.88-23.48v-3.34c-1.45-.63-2.67-.56-3.93-.08v4.87h3.86c.02-.42,.04-.78,.06-1.46Zm-14.54-3.38c-1.29-.61-2.54-.69-3.71,.19v4.64h3.84c0-1.57,0-3.06-.13-4.83Zm9.92,41.38c1.17-2.21,2.33-4.41,3.56-6.73h-4.07v7.29c.19-.16,.31-.26,.51-.56Zm-11.81-5.14c1,1.9,2.01,3.81,3.01,5.71l.21-.13v-7.12h-3.93c.25,.55,.43,.93,.71,1.54Zm.58-18.35l1.68-.82-.09-.32-8.76,1.35c.28,1.02,.5,1.85,.75,2.75,2.2-1.01,4.2-1.93,6.42-2.96Zm4.3-25.44c-.82,0-.88,.39-.57,1.01l2.28,.15c.06,.87,.1,1.61,.16,2.4h.99c.06-.86,.11-1.64,.16-2.41l2.67-.19c-.54-1.65-1.94-.48-2.69-1.23-.05-.67-.1-1.44-.15-2.28l-.95,.07c-.07,.83-.13,1.61-.2,2.49-.55,0-.97,0-1.67,0Zm7.61,26.78l-1.97-.8-.17,.26,1.43,2.08h3.36l.09-.23c-.84-.4-1.69-.8-2.74-1.32Zm-8.97-.69l-4.25,2.04,.08,.17h3.65c.26-.76,.51-1.51,.52-2.22Zm1.47-22.5c-1.34,.2-2.51,.75-3.81,1.68l1.51,.45c.89-.71,1.7-1.35,2.3-2.13Zm6.62,.65l-2.28-.73-.11,.33c.87,.59,1.74,1.18,2.73,1.85l1.36-.47c-.65-.4-1.06-.65-1.7-.98Zm-3.29,24.09h1.23l-1.16-1.75-.22,.12c0,.47,0,.94,.14,1.63Zm-2.85-.82l-.35,.77h1.2c-.05-.56-.09-1.01-.15-1.71-.32,.39-.44,.55-.7,.94Zm-2.62-3.38l.09,.25c.03-.08,.05-.17-.09-.25Z"/><path class="cls-1" d="M351.25,62.55c.44-.49,.79-.9,1.19-1.35l.98,.43c-.21,1.66-.42,3.24-.64,4.9l-1.02-.29,.37-2.85-.28-.2-2.09,2.33-.37-.11c0-.5-.01-.99,0-1.49,.01-.52,.05-1.05-.17-1.71l-1.77,2.17-.65-.44c1.13-1.3,2.2-2.53,3.27-3.77q.55,.41,.67,2.63c.15-.06,.29-.12,.51-.26Z"/><path class="cls-1" d="M334.87,39.15c1.49,.02,2.84,.02,4.4,.02-.12,1.01-.16,1.97-.37,2.89-.3,1.28-1.35,2.05-2.45,1.95-1.18-.11-2.28-1.11-2.39-2.3-.08-.9-.02-1.82-.02-2.84,.32,.12,.51,.19,.84,.28Zm3.48,1.73c-1.13-.9-2.39-.32-3.6-.46,.03,1.52,.52,2.21,1.58,2.36,1.01,.14,1.53-.27,2.02-1.9Z"/><path class="cls-1" d="M344.72,56.3c-1.16,1.11-2.25,2.15-3.54,3.38-.59-1.72,.55-3.08,.3-4.69-.83,.62-1.54,1.16-2.36,1.78l-.6-.77c1.35-.94,2.67-1.85,4.05-2.81,.97,1.26-.37,2.55,.06,4.22,.57-.79,1.02-1.42,1.58-2.19,.31,.51,.45,.76,.52,1.08Z"/><path class="cls-1" d="M339.84,33.86c-1,.4-1.89,.74-3.12,1.22l2.89,.63-.15,.74-4.8-1.13-.08-.48c1.3-.55,2.6-1.1,4.22-1.78l-3-1.1,.3-.93c1.55,.62,3.04,1.22,4.71,1.89-.3,.32-.58,.6-.96,.94Z"/><path class="cls-1" d="M383.58,32.26c-1.06,.55-2,1.03-3.07,1.58-.3-.68-.57-1.37-.89-2.03-.37-.75-.48-1.57,.22-2.05,.55-.38,1.35-.42,2.05-.55,.18-.03,.39,.13,.7,.25v-2.01c1.46,.93,.8,2.3,.94,3.52l1.13-.21,.35,.78c-.48,.24-.91,.45-1.44,.73Zm-2.4-2.2c-1.29,.73-1.32,.87-.61,2.62l2.09-1.09c-.03-.9-.42-1.39-1.47-1.53Z"/><path class="cls-1" d="M360.98,65.48c-.08-.8-.16-1.6-.25-2.49l.78-.1c.1,1.65,.2,3.23,.32,5.06-1.6-.76-2.04-2.23-3.34-3.27-.08,1.03-.15,1.87-.23,2.86l-.9,.13c.11-1.72,.21-3.35,.33-5.12,1.57,.4,1.95,1.94,3.02,2.96,.16,.06,.22,.01,.27-.04Z"/><path class="cls-1" d="M336.6,49.17c.15,.12,.19,.19,.23,.27l-.98,.25c-1.21-1.31-1.5-2.65-.85-3.71,.51-.83,2.04-1.52,2.98-1.24,1.65,.49,1.86,1.91,2.07,3.41l-1.06,.45c.34-1.33,.53-2.55-1.54-2.69,.28,1.07,.49,1.92,.73,2.84l-.71,.2c-.23-.91-.44-1.77-.76-3.03-.63,.71-1.02,1.13-1.55,1.73,.52,.57,.92,1.02,1.44,1.53Z"/><path class="cls-1" d="M343.47,58.96c.2-.27,.32-.46,.48-.59,1.08-.9,2.53-.99,3.41-.22,.81,.71,.97,2.06,.36,3.12-.65,1.13-2.05,1.64-3.22,1.18-1.14-.45-1.62-1.52-1.31-2.95,.03-.15,.14-.29,.28-.54Zm3.67,.76l-.49-1.51c-1.68,.45-2.47,1.3-2.66,2.67,.54,1.04,1.29,1.01,2.02,.44,.44-.34,.72-.89,1.14-1.6Z"/><path class="cls-1" d="M363.13,66.3c-.98-2.76-.23-3.81,2.99-4.19l.25,.95-1.89-.22c-.29,.54-.55,1.01-.81,1.49l.24,.3,2.66-.64s.1,.1,.15,.24c.06,.14,.06,.3,.08,.46l-2.59,.58c0,.81,.47,1.33,1.15,1.24,.67-.09,1.29-.58,2.02-.93,0-.01,.13,.26,.24,.51-1.41,1.66-2.89,1.75-4.49,.22Z"/><path class="cls-1" d="M381.3,48.85c1.14,1.83,1.7,1.99,3.64,.97-.05-.6-.1-1.31-.16-2.13l.95,.45c.13,1.72-.58,3.14-1.73,3.59-.94,.37-2.47-.03-3.08-.89-1.04-1.48-.17-2.74,.54-4.1l.9,.31c-.38,.59-.73,1.13-1.07,1.8Z"/><path class="cls-1" d="M382.63,34.3l.84-.29c.26,.95,.5,1.85,.77,2.85,1.07-.39,1.45-1.02,1.18-2.39l-1.1-.9c1.17-.23,1.69,.19,1.9,1.54,.27,1.79-.62,2.94-2.41,3.12-1.7,.16-2.59-.9-2.8-3.44,.22-.07,.46-.15,.83-.11-.4,1.81,.06,2.47,1.81,2.23-.35-.9-.69-1.76-1.03-2.62Z"/><path class="cls-1" d="M372.82,58.97c-.11,.25-.15,.6-.35,.73-.48,.32-1.04,.53-1.64,.83l.59,1.41,1.74-.91,.4,.57-1.83,.93c.4,.76,.76,1.45,1.16,2.22l-1,.55c-.78-1.53-1.52-2.99-2.34-4.61,.94-.53,2-1.14,3.16-1.73,.11,0,.1,0,.1,0Z"/><path class="cls-1" d="M381.99,44.06c-.02-1.1-.04-2.21-.07-3.31-.02-.69-.07-1.37-.12-2.17l.84,.44v1.74h4.27c.05,.45,.09,.79,.14,1.28h-4.15c-.3,.7-.54,1.25-.86,1.91-.09,.11-.05,.11-.05,.11Z"/><path class="cls-1" d="M375.8,59.97c-.23,.68,.22,.97,.73,.92,.49-.04,1.08-.26,1.38-.61,.31-.36,.34-.97,.49-1.46,.77,.75,.8,.86,.35,1.61-.82,1.38-2.4,1.91-3.6,1.22-1.52-.88-1.8-2.13-.69-3.86,.23,.06,.29,.15,.35,.25-.09,.58-.42,1.22,.53,1.66,.27,.14,.37,.21,.46,.28Z"/><path class="cls-1" d="M381.32,57.71c-.27,.33-.53,.66-.8,1-1.28-1.04-2.51-2.04-3.85-3.13l.65-.91c1.29,.92,2.51,1.78,3.85,2.73,.13,.16,.14,.24,.15,.32Z"/><path class="cls-1" d="M381.98,44.21c0-.16-.03-.16-.04-.16,.36,.31,.7,.77,1.12,.88,1.08,.27,2.21,.38,3.46,.57-.02,.36-.04,.8-.06,1.12-1.65-.29-3.21-.56-4.93-.86,.14-.45,.29-.92,.45-1.56Z"/><path class="cls-1" d="M339.46,49.82c.33-.2,.54-.36,.89-.62l.59,1.09-4.52,1.98-.52-.96c1.21-.5,2.33-.97,3.57-1.48Z"/><path class="cls-1" d="M379.77,51.54c1.37,.81,2.67,1.54,4.06,2.32l-.51,.94c-1.44-.8-2.81-1.56-4.34-2.41,.18-.23,.45-.58,.79-.84Z"/><path class="cls-1" d="M340.73,30.65c.32,.08,.53,.11,.87,.16l-.43,1.2c-1.5-.77-2.95-1.5-4.45-2.27l.55-1.03c1.17,.66,2.26,1.27,3.47,1.94Z"/><path class="cls-1" d="M355.14,62.35c.51,0,.92,.05,1.23,.1-.33,1.66-.63,3.2-.96,4.86l-.84-.19c.16-1.61,.32-3.15,.57-4.77Z"/><path class="cls-1" d="M381.41,57.65c-.11-.03-.12-.11-.14-.31,.26-.85,.53-1.58,.85-2.44l.64,1.23c-.43,.51-.84,.99-1.35,1.52Z"/><path class="cls-1" d="M375.9,59.93c-.2-.03-.3-.1-.43-.26,.5-.66,1.05-1.24,1.67-1.9,.17,.16,.38,.35,.61,.56-.64,.57-1.19,1.06-1.84,1.6Z"/><path class="cls-1" d="M374.9,57.97c-.16-.03-.22-.12-.36-.25,.26-.56,.6-1.08,1-1.71l1,1.12c-.57,.28-1.06,.53-1.65,.84Z"/><path class="cls-1" d="M368.24,63.84c.32-.23,.65-.34,.97-.44v.84c-.32-.09-.64-.19-.97-.4Z"/><path class="cls-1" d="M340.49,52.53q-.56,.91-1.27-.31c.56,.1,.89,.15,1.27,.31Z"/><path class="cls-1" d="M337.11,38.02c-.39,0-.71-.08-1.2-.21q1.09-.84,1.2,.21Z"/><path class="cls-1" d="M372.84,59c.05-.07,.09-.14,.13-.22,0,.07,0,.15-.08,.21-.07-.01-.06,0-.05,0Z"/><path class="cls-1" d="M365.14,28.39c-.27,.03-.45,.01-.64-.01v-.19c.17-.04,.35-.07,.6-.07,.08,.1,.1,.16,.04,.27Z"/><path class="cls-1" d="M356.18,28.15c.06,.08,.03,.16,0,.25-.03-.08-.06-.16,0-.25Z"/></g></svg>